<svg xmlns="http://www.w3.org/2000/svg" width="1576" height="500"><path fill="#00dc5a" fill-rule="evenodd" d="M782.8 17.7c0-2.2 2-4 4.4-4h105.2c2.4 0 4.4 1.8 4.4 4v473.7c0 2.3-2 4.1-4.4 4.1H787.2c-2.4 0-4.4-1.8-4.4-4.1zM9.8 193.2c0-2.3 2-4.1 4.4-4.1h105.1c2.5 0 4.5 1.8 4.5 4.1v298.2c0 2.2-2 4.1-4.5 4.1H14.2c-2.4 0-4.4-1.9-4.4-4.1zM714 420.4l-58.8 73.7c-1.6 1.9-4.4 2.3-6.3.7l-55.8-45c-2-1.6-4.8-1.7-7-.2-28.6 20.7-62.2 35.5-99.2 42.2-133.2 24.2-260.7-64.4-284.7-198C178.1 160.3 266.7 32.3 399.9 8.1s260.6 64.4 284.7 198c10.1 56.4.2 111.8-24.7 158.8-.6 1.2-.8 2.6-.5 3.8.2 1.3.9 2.5 2 3.4l52 42c1.9 1.5 2.2 4.3.6 6.3M581.5 224.8c-14-78.1-87.4-130.4-163.6-116.5-76.2 13.8-126.7 88.6-112.7 166.8 14.1 78.1 87.5 130.4 163.7 116.5C545 377.8 595.6 303 581.5 224.8M1576 17.7v473.7c0 2.2-2 4.1-4.4 4.1h-105.2c-2.4 0-4.4-1.9-4.4-4.1V17.7c0-2.3 2-4.1 4.4-4.1h105.2c2.4 0 4.4 1.8 4.4 4.1M66.8 138.4c-37 0-66.8-30-66.8-67.1S29.8 4.2 66.8 4.2c36.9 0 66.7 30 66.7 67.1s-29.8 67.1-66.7 67.1m1343.5-117-166.5 281.7c-1.6 2.7-2.4 5.8-2.4 9v178.4c0 2.8-2.2 5-4.9 5h-105.4c-2.7 0-4.9-2.2-4.9-5V312.1c0-3.2-.8-6.3-2.4-9L957.3 21.4c-2.5-4.7.9-7.8 3.9-7.8h112.1c1.9 0 3.7 1 4.6 2.6L1182 202.3l.1.2c.3.4.9 1.2 1.7 1.2l.4-.1c.8-.2 1.4-1.3 1.4-1.3l104.1-186.1c.9-1.6 2.7-2.6 4.6-2.6h112.1c2.9 0 6.4 3.1 3.9 7.8"/></svg>